<svg
  aria-hidden="true"
  style="position: absolute; width: 0; height: 0; overflow: hidden"
  version="1"
  xmlns="http://www.w3.org/2000/svg"
  xmlns:xlink="http://www.w3.org/1999/xlink"
>
  <defs>
    <symbol id="icon-fish-offer" viewBox="0 0 24 24">
      <path
        d="M16.412 16.5856C15.094 17.2672 14.4726 16.4954 13.7376 15.4471C13.2452 15.6219 12.708 15.7214 12.1967 15.8303L12.2062 15.8606C12.3298 16.2629 12.331 16.6686 12.1752 17.0625C12.0223 17.4489 11.7271 17.7497 11.565 18.1242C11.428 18.441 11.5651 18.9103 11.1338 19.0269C10.4924 19.2004 9.15615 17.8588 8.74919 17.4169C8.39584 17.0333 8.05867 16.6267 7.91692 16.1161C7.64964 16.1032 7.38053 16.0613 7.11494 16.026C4.53119 15.682 2.61883 14.5814 0.762533 12.7345C0.296087 12.2705 -0.00419393 12.0692 0.499564 11.5178C2.1088 9.7561 4.07414 8.17866 6.42484 7.57852L6.93686 7.45739C7.45853 7.34583 7.40444 7.38483 7.79383 7.03702L8.33162 6.57221C9.14125 5.88872 10.5698 4.95366 11.6784 4.90336C12.1111 4.89769 12.3907 4.88039 12.784 5.07905L13.4296 5.44275C14.507 6.05967 15.4782 6.76763 16.3056 7.70053C16.951 8.42827 17.1283 8.79066 16.69 9.65489C16.739 9.71897 16.8752 9.78619 16.9452 9.83161C17.4354 10.1492 17.9162 10.4681 18.3595 10.8506C18.5635 10.4719 18.8357 10.1435 19.1294 9.8318C20.142 8.7571 21.4075 8.12724 22.8933 7.99308C23.3233 7.95422 23.872 7.99538 23.6636 8.58947C23.6144 8.72981 23.5327 8.8567 23.4563 8.98341L23.1838 9.44353C22.2925 10.99 21.8921 12.3598 23.0346 13.9C23.23 14.1634 23.4796 14.3996 23.6528 14.6768C23.9778 15.1965 23.5847 15.4982 23.0424 15.4675L22.567 15.4176C21.142 15.2131 19.7761 14.5805 18.8552 13.4421C18.697 13.2465 18.5707 13.0328 18.439 12.8193C18.0769 13.2091 17.275 13.75 16.8332 14.0323C17.125 14.0267 17.4605 13.958 17.6465 14.2508C17.7774 14.4569 17.7277 14.7421 17.6713 14.9648C17.499 15.6457 17.0095 16.2319 16.412 16.5856ZM11.8304 5.61825C10.772 5.703 9.39822 6.6 8.6379 7.28396L8.65619 7.27922C8.87439 7.2241 9.1315 7.25152 9.35678 7.25189C10.5774 7.25396 11.8506 7.48796 13.008 7.85977L14.048 8.24381C14.4866 8.42475 14.9208 8.61877 15.3376 8.84611L16.0429 9.2731C16.3135 8.81799 16.1433 8.64835 15.8245 8.27897C15.1602 7.50919 14.3276 6.82786 13.4505 6.30896L12.9356 6.01299C12.5466 5.78391 12.297 5.59627 11.8304 5.61825ZM8.63289 7.98183C8.16423 8.01356 7.69164 8.06635 7.23039 8.15508C6.93142 8.2126 6.63779 8.29538 6.3369 8.34164C6.83481 9.06647 7.28265 10.015 7.357 10.9091C7.8804 10.7217 8.39261 10.5277 8.95398 10.4975C10.1311 10.4342 10.3749 11.199 9.91234 12.1404C9.33217 13.3211 8.14033 13.9113 6.87878 13.9972C6.81634 14.0014 6.8169 14.1012 6.79703 14.1497C6.64431 14.5226 6.40989 14.8169 6.17776 15.1424C6.34862 15.1659 6.51639 15.2078 6.68565 15.2403L7.20714 15.3178C7.88247 15.3984 8.55372 15.3872 9.2327 15.3866C9.72798 15.3862 10.1433 15.3752 10.633 15.3238L11.6042 15.1958C12.1279 15.1089 12.656 14.9974 13.1651 14.8465L14.0974 14.5244C15.3338 14.0687 16.5 13.4607 17.5317 12.632L17.9023 12.3233C18.4292 11.854 18.6263 11.6655 19.0226 12.3694C19.6912 13.556 20.7502 14.2161 22.0224 14.5728L22.7484 14.7214C20.8923 12.5505 21.5344 10.9586 22.715 8.76713C21.2632 8.93105 19.8883 9.82571 19.1044 11.0447C18.6317 11.7797 18.5502 11.8782 17.8022 11.3384L15.7213 9.92138L14.84 9.41686C13.5042 8.72508 12.063 8.2666 10.5707 8.07413L9.72522 7.98689C9.36536 7.96655 8.99345 7.97452 8.63289 7.98183ZM5.59609 8.63086C4.00852 9.27347 2.1877 10.6381 1.08908 11.9936C1.7166 12.6851 2.47941 13.2967 3.2435 13.8258C3.87434 14.2508 4.67182 14.6891 5.41576 14.8914C6.10881 14.1585 6.58065 13.0461 6.68542 12.0586C6.79609 11.0153 6.47265 10.0088 5.95567 9.11189C5.86225 8.9498 5.75884 8.76371 5.62951 8.62786L5.59609 8.63086ZM8.98305 11.2193C8.44647 11.282 7.93169 11.4851 7.43247 11.6834C7.40908 11.7508 7.41878 11.8546 7.41662 11.9274L7.39267 12.2893C7.35653 12.6124 7.2797 12.9211 7.17948 13.2299L7.549 13.1497C8.26778 12.921 8.90823 12.4815 9.26017 11.7971C9.33728 11.6471 9.53097 11.2625 9.24034 11.2193C9.18151 11.2105 9.03414 11.199 8.98305 11.2193ZM16.0851 14.7581C15.3742 14.7848 15.0988 14.958 14.4389 15.1857C14.623 15.5009 15.0272 15.9851 15.3798 16.1065C16.0166 16.2023 16.8 15.404 16.9534 14.8291C16.9607 14.8018 16.9718 14.7855 16.9887 14.7633C16.9172 14.7446 16.8071 14.7581 16.7311 14.7581L16.0851 14.7581ZM10.9696 16.0215L8.70015 16.1547C8.72261 16.1729 8.8599 16.3993 8.89412 16.4457C9.19998 16.8613 9.56936 17.2349 9.96475 17.5663L10.7965 18.235C10.8582 18.0095 10.9123 17.7949 11.0197 17.5853C11.2119 17.2103 11.5336 16.9133 11.5584 16.4684C11.586 15.971 11.3035 16.0149 10.9696 16.0215Z"
      />
      <path
        d="M4.63799 11.7771C3.75311 11.792 3.26062 10.8631 3.78858 10.23C3.96131 10.0228 4.18446 9.93272 4.44622 9.90689C5.6369 9.82814 5.92701 11.5438 4.63799 11.7771ZM4.44724 10.6113C4.16695 10.763 4.3055 11.0901 4.60816 11.0406C4.89857 10.9238 4.74421 10.5539 4.44724 10.6113Z"
      />
    </symbol>
    <symbol id="icon-user" viewBox="0 0 20 24">
      <g clip-path="url(#clip0_575_7916)">
        <path
          d="M18.8891 22.8V20.4C18.8891 19.127 18.4209 17.9061 17.5874 17.0059C16.7539 16.1057 15.6234 15.6 14.4447 15.6H5.55577C4.37703 15.6 3.24657 16.1057 2.41308 17.0059C1.57958 17.9061 1.11133 19.127 1.11133 20.4L1.11133 22.8"
          stroke-width="2"
          stroke-linecap="round"
          stroke-linejoin="round"
        />
        <path
          d="M10.0001 10.8C12.4547 10.8 14.4446 8.65097 14.4446 6C14.4446 3.34903 12.4547 1.2 10.0001 1.2C7.54551 1.2 5.55566 3.34903 5.55566 6C5.55566 8.65097 7.54551 10.8 10.0001 10.8Z"
          stroke-width="2"
          stroke-linecap="round"
          stroke-linejoin="round"
        />
      </g>
      <defs>
        <clipPath id="clip0_575_7916">
          <rect width="20" height="24" />
        </clipPath>
      </defs>
    </symbol>
    <symbol id="icon-search" viewBox="0 0 24 24">
      <g clip-path="url(#clip0_576_7922)">
        <path
          d="M10.2002 19.2C15.1708 19.2 19.2002 15.1706 19.2002 10.2C19.2002 5.22944 15.1708 1.2 10.2002 1.2C5.22963 1.2 1.2002 5.22944 1.2002 10.2C1.2002 15.1706 5.22963 19.2 10.2002 19.2Z"
          stroke="black"
          stroke-width="2"
          stroke-linecap="round"
          stroke-linejoin="round"
        />
        <path
          d="M22.8001 22.8L16.5601 16.56"
          stroke="black"
          stroke-width="2"
          stroke-linecap="round"
          stroke-linejoin="round"
        />
      </g>
      <defs>
        <clipPath id="clip0_576_7922">
          <rect width="24" height="24" fill="white" />
        </clipPath>
      </defs>
    </symbol>
    <symbol id="icon-heart" viewBox="0 0 24 24">
      <path
        d="M11.595 23.8L1.97669 12.9333C1.5674 12.5 1.24582 12 0.953467 11.4667C-0.625219 8.5 -0.21593 4.7 1.97669 2.23333C3.23379 0.8 4.92942 0 6.71275 0C9.5193 0 11.2734 1.86667 12.0043 2.93333C12.7351 1.86667 14.4892 0 17.2958 0C19.0791 0 20.7747 0.8 22.0319 2.23333C24.1952 4.7 24.6338 8.5 23.0551 11.4667C22.7627 12 22.4411 12.5 22.0319 12.9333L12.4136 23.8C12.1797 24.0667 11.8289 24.0667 11.595 23.8ZM6.71275 1.33333C5.22177 1.33333 3.84772 2 2.79527 3.16667C1.01194 5.2 0.661118 8.33333 1.94745 10.7667C2.18133 11.2 2.47368 11.6333 2.79527 12L12.0043 22.4L21.2133 12C21.5349 11.6333 21.8272 11.2333 22.0611 10.7667C23.3474 8.3 23.0258 5.16667 21.2133 3.16667C20.1608 2 18.7575 1.33333 17.2958 1.33333C15.1909 1.33333 13.4368 2.63333 12.5013 4.43333C12.2674 4.86667 11.7119 4.86667 11.478 4.43333C10.5718 2.63333 8.81766 1.33333 6.71275 1.33333Z"
      />
    </symbol>
    <symbol id="icon-cart" viewBox="0 0 24 24">
<path d="M0.5 0.5H4.5L7.7 19.7C7.58309 20.2714 7.59256 20.8615 7.72776 21.4289C7.86295 21.9963 8.1206 22.5273 8.48264 22.9846C8.84468 23.4419 9.30235 23.8145 9.82358 24.0763C10.3448 24.3381 10.917 24.4827 11.5 24.5H29.3C30.1742 24.484 31.0191 24.182 31.7054 23.6402C32.3917 23.0984 32.8816 22.3466 33.1 21.5L36.5 6.5H6.5" stroke="black" stroke-linecap="round" stroke-linejoin="round"/>
<path d="M12.5 35.7C14.2674 35.7 15.7 34.2673 15.7 32.5C15.7 30.7327 14.2674 29.3 12.5 29.3C10.7327 29.3 9.30005 30.7327 9.30005 32.5C9.30005 34.2673 10.7327 35.7 12.5 35.7Z" stroke="black" stroke-linecap="round" stroke-linejoin="round"/>
<path d="M30.5 35.7C32.2674 35.7 33.7001 34.2673 33.7001 32.5C33.7001 30.7327 32.2674 29.3 30.5 29.3C28.7327 29.3 27.3 30.7327 27.3 32.5C27.3 34.2673 28.7327 35.7 30.5 35.7Z" stroke="black" stroke-linecap="round" stroke-linejoin="round"/>

    </symbol>
    <symbol id="icon-left-arrow" viewBox="0 0 15 24">
      <path
        d="M13.8022 0L0 11.5209V12.4791L13.8022 24L15 23.0417L1.91344 12L14.9847 0.958265L13.8022 0Z"
        fill="black"
      />
    </symbol>
    <symbol id="icon-right-arrow" viewBox="0 0 15 24">
      <path
        d="M1.19781 24L15 12.4791V11.5209L1.19781 -6.48088e-07L-4.80917e-07 0.958265L13.0866 12L0.0152919 23.0417L1.19781 24Z"
        fill="black"
      />
    </symbol>
    <symbol id="icon-map" viewBox="0 0 20 24">
      <path
        d="M10 0C4.5 0 0 3.54075 0 7.90958C0 17.2183 9.14286 23.586 9.53571 23.8715C9.78571 24.0428 10.2143 24.0428 10.4643 23.8715C10.8571 23.586 20 17.1898 20 7.90958C20 3.54075 15.5 0 10 0ZM10 22.6437C8.14286 21.2159 1.42857 15.5051 1.42857 7.90958C1.42857 4.16895 5.28571 1.14218 10 1.14218C14.7143 1.14218 18.5714 4.16895 18.5714 7.90958C18.5714 15.5051 11.8571 21.2159 10 22.6437ZM10 3.42653C6.85714 3.42653 4.28571 5.48245 4.28571 7.99524C4.28571 10.508 6.85714 12.564 10 12.564C13.1429 12.564 15.7143 10.508 15.7143 7.99524C15.7143 5.48245 13.1429 3.42653 10 3.42653ZM10 11.4218C7.64286 11.4218 5.71429 9.87983 5.71429 7.99524C5.71429 6.11065 7.64286 4.56871 10 4.56871C12.3571 4.56871 14.2857 6.11065 14.2857 7.99524C14.2857 9.87983 12.3571 11.4218 10 11.4218Z"
        fill="black"
      />
    </symbol>
    <symbol id="icon-star" viewBox="0 0 20 24">
      <path
        d="M19.8485 7.62554C19.9288 7.07872 19.5505 6.57042 19.0038 6.49016L13.3524 5.66399L10.827 0.517505C10.7361 0.360523 10.6056 0.230152 10.4485 0.139393C9.95244 -0.14729 9.31785 0.0223881 9.03111 0.518482L6.5067 5.66399L0.855329 6.49022C0.639265 6.5219 0.439558 6.62346 0.286543 6.77928C-0.100603 7.17363 -0.0946831 7.80718 0.299665 8.19432L4.39244 12.207L3.42662 17.8711C3.41746 17.9253 3.41276 17.9802 3.41264 18.0352C3.41112 18.5886 3.8585 19.0385 4.41197 19.04C4.57512 19.0398 4.73576 18.9996 4.87974 18.9228L9.92955 16.2529L14.9784 18.9219C15.1735 19.0254 15.3974 19.0615 15.6152 19.0244C16.1593 18.9316 16.5253 18.4153 16.4325 17.8711L15.4667 12.207L19.5604 8.19329C19.7157 8.04045 19.8168 7.84111 19.8485 7.62554ZM14.5799 11.6757C14.4629 11.7906 14.4093 11.9554 14.4364 12.1171L15.4461 18.038L10.1629 15.245C10.0166 15.1688 9.84245 15.1688 9.69615 15.245L4.41295 18.039L5.42265 12.1172C5.44981 11.9554 5.39622 11.7906 5.2791 11.6758L0.999799 7.48046L6.91191 6.6162C7.07518 6.59178 7.21605 6.48888 7.28892 6.34081L9.92955 0.959034L12.5701 6.34075C12.643 6.48882 12.7839 6.59172 12.9471 6.61614L18.8602 7.47942L14.5799 11.6757Z"
      />
    </symbol>
    <symbol id="icon-down" viewBox="0 0 20 12">
      <path d="M0 0L10 12L20 0H0Z" />
    </symbol>

    <symbol id="icon-radio-check" viewBox="0 0 24 24">
      <path
        d="M12 2C6.48 2 2 6.48 2 12C2 17.52 6.48 22 12 22C17.52 22 22 17.52 22 12C22 6.48 17.52 2 12 2ZM12 20C7.58 20 4 16.42 4 12C4 7.58 7.58 4 12 4C16.42 4 20 7.58 20 12C20 16.42 16.42 20 12 20Z"
        fill="black"
      />
      <path
        d="M12 17C14.7614 17 17 14.7614 17 12C17 9.23858 14.7614 7 12 7C9.23858 7 7 9.23858 7 12C7 14.7614 9.23858 17 12 17Z"
        fill="black"
      />
    </symbol>
    <symbol id="icon-radio" viewBox="0 0 24 24">
      <path
        d="M12 2C6.48 2 2 6.48 2 12C2 17.52 6.48 22 12 22C17.52 22 22 17.52 22 12C22 6.48 17.52 2 12 2ZM12 20C7.58 20 4 16.42 4 12C4 7.58 7.58 4 12 4C16.42 4 20 7.58 20 12C20 16.42 16.42 20 12 20Z"
        fill="black"
      />
    </symbol>
    <symbol id="icon-tick" viewBox="0 0 24 18">
      <path
        d="M23.9287 2.07617L8.49707 17.459C8.22353 17.7302 7.84209 17.9502 7.51367 17.9502C7.35105 17.9502 7.17373 17.8932 7 17.8008C6.87019 17.7317 6.74379 17.6436 6.62891 17.5469L6.51758 17.4473L0.0703125 11.0547L2.06055 9.08105L7.49023 14.4658L7.52539 14.5L7.56055 14.4648L21.9736 0.0703125L23.9287 2.07617Z"
      />
    </symbol>
    <symbol id="icon-order-bag" viewBox="0 0 24 24">
      <path
        d="M4.79102 0.5H19.209C20.6008 0.5 21.7625 1.56904 21.8945 3.0127L23.4883 20.4688C23.5594 21.2471 23.304 22.0243 22.793 22.5986C22.2822 23.1726 21.5565 23.4999 20.8037 23.5H3.19629C2.4437 23.5 1.71796 23.1728 1.20703 22.5986C0.695652 22.0239 0.440601 21.2476 0.511719 20.4688L2.10547 3.0127C2.22925 1.65937 3.2573 0.635601 4.53223 0.512695L4.79102 0.5ZM4.78906 1.13672C3.76038 1.13714 2.91404 1.8794 2.72949 2.87207L2.70117 3.07422L1.10742 20.5303C1.05267 21.1302 1.2425 21.7124 1.6416 22.1611C2.04142 22.6105 2.59582 22.8622 3.19531 22.8623H20.8018C21.4013 22.8623 21.9565 22.6108 22.3564 22.1611C22.7556 21.7123 22.9444 21.1302 22.8896 20.5303L21.2959 3.07422C21.196 1.98136 20.3054 1.13686 19.208 1.13672H4.78906Z"
        fill="black"
        stroke="black"
      />
      <path
        d="M7.70898 5.02846C7.95257 7.21707 9.77301 8.93839 11.999 8.93861C14.2252 8.93861 16.0464 7.21722 16.29 5.02846H16.8945C16.6487 7.58607 14.5371 9.57533 11.999 9.57533C9.46114 9.57511 7.35038 7.58562 7.10449 5.02846H7.70898Z"
        fill="black"
        stroke="black"
      />
    </symbol>
    <symbol id="icon-user-profile" viewBox="0 0 48 48">
      <path
        d="M20 40c11.046 0 20-8.954 20-20S31.046 0 20 0 0 8.954 0 20s8.954 20 20 20Z"
        fill="#F7F9FF"
      ></path>
      <mask
        id="user_svg__a"
        mask-type="alpha"
        maskUnits="userSpaceOnUse"
        x="0"
        y="0"
        width="40"
        height="40"
      >
        <path
          d="M20 40c11.046 0 20-8.954 20-20S31.046 0 20 0 0 8.954 0 20s8.954 20 20 20Z"
          fill="#F7F9FF"
        ></path>
      </mask>
      <g mask="url(#user_svg__a)">
        <path
          d="M27.222 15.222C27.222 11.24 23.982 8 20 8s-7.222 3.24-7.222 7.222c0 3.983 3.24 7.222 7.222 7.222s7.222-3.24 7.222-7.222ZM20 22.444c-7.168 0-13 5.832-13 13v1.354c0 .41.175.802.48 1.076C11 41.027 15.446 42.763 20 42.763s9.001-1.736 12.52-4.89c.305-.273.48-.664.48-1.075v-1.354c0-7.168-5.832-13-13-13Z"
          fill="#D6E2FF"
        ></path>
      </g>
    </symbol>
    <symbol id="icon-log-out" viewBox="0 0 24 24">
      <path
        d="M23.6973 12.7269L19.5832 16.8411C19.3829 17.0414 19.1196 17.1429 18.8563 17.1429C18.593 17.1429 18.3297 17.0427 18.1295 16.8411C17.7277 16.4393 17.7277 15.7879 18.1295 15.3861L20.4883 13.0272H7.88675C7.319 13.0272 6.85822 12.5664 6.85822 11.9986C6.85822 11.4309 7.319 10.9701 7.88675 10.9701H20.4883L18.1295 8.6112C17.7277 8.20937 17.7277 7.55794 18.1295 7.15612C18.5313 6.75429 19.1827 6.75429 19.5845 7.15612L23.6986 11.2704C24.1005 11.6722 24.1005 12.3237 23.6986 12.7255L23.6973 12.7269ZM8.9139 22.9714C8.9139 22.4037 8.45312 21.9429 7.88538 21.9429H3.77127C2.82639 21.9429 2.05705 21.1735 2.05705 20.2286V3.77143C2.05705 2.82651 2.82639 2.05714 3.77127 2.05714H7.88538C8.45312 2.05714 8.9139 1.59634 8.9139 1.02857C8.9139 0.4608 8.45312 0 7.88538 0H3.77127C1.6909 0 0 1.69097 0 3.77143V20.2286C0 22.309 1.6909 24 3.77127 24H7.88538C8.45312 24 8.9139 23.5392 8.9139 22.9714Z"
        fill="black"
      />
    </symbol>
    <symbol id="icon-edit" viewBox="0 0 24 24">
      <path
        d="M11.4606 0.585786C12.2417 1.36684 12.2417 2.63316 11.4606 3.41421L4.07415 10.8007C3.75375 11.1211 3.3523 11.3484 2.91272 11.4583L0.621723 12.031C0.255533 12.1226 -0.0761638 11.7909 0.0153838 11.4247L0.588134 9.13367C0.698029 8.69409 0.925326 8.29264 1.24572 7.97225L8.63218 0.585786C9.41323 -0.195262 10.6796 -0.195262 11.4606 0.585786ZM7.925 2.707L1.95283 8.67935C1.76059 8.87159 1.62421 9.11246 1.55828 9.37621L1.18764 10.8588L2.67019 10.4881C2.93394 10.4222 3.1748 10.2858 3.36704 10.0936L9.339 4.121L7.925 2.707ZM9.33929 1.29289L8.632 2L10.046 3.414L10.7535 2.70711C11.144 2.31658 11.144 1.68342 10.7535 1.29289C10.363 0.902369 9.72981 0.902369 9.33929 1.29289Z"
      />
    </symbol>
    <symbol id="icon-bad" viewBox="0 0 24 24">
<path d="M16.0001 -0.0339966C7.15909 -0.0339966 -0.0349121 7.158 -0.0349121 16C-0.0349121 24.842 7.15909 32.034 16.0001 32.034C24.8411 32.034 32.0351 24.842 32.0351 16C32.0351 7.158 24.8411 -0.0339966 16.0001 -0.0339966ZM16.0001 30.966C7.74809 30.966 1.03509 24.252 1.03509 16C1.03509 7.748 7.74809 1.034 16.0001 1.034C24.2521 1.034 30.9651 7.748 30.9651 16C30.9651 24.252 24.2521 30.966 16.0001 30.966Z" fill="black"/>
<path d="M16.163 19.823C14.7774 19.8255 13.4072 20.1142 12.1384 20.6709C10.8695 21.2275 9.72921 22.0402 8.789 23.058C8.7414 23.1096 8.70442 23.1701 8.68019 23.236C8.65596 23.3019 8.64495 23.3719 8.64778 23.4421C8.6535 23.5837 8.71527 23.7174 8.8195 23.8135C8.92373 23.9096 9.06188 23.9604 9.20357 23.9547C9.34525 23.949 9.47886 23.8872 9.575 23.783C10.4146 22.8733 11.4331 22.1469 12.5665 21.6492C13.7 21.1516 14.9241 20.8934 16.162 20.891C17.4172 20.8928 18.6581 21.1578 19.8045 21.6689C20.951 22.1799 21.9776 22.9257 22.818 23.858C22.9138 23.9603 23.046 24.021 23.1861 24.0268C23.3262 24.0327 23.463 23.9834 23.5671 23.8894C23.6711 23.7954 23.7341 23.6643 23.7425 23.5244C23.751 23.3844 23.7041 23.2467 23.612 23.141C22.6711 22.0982 21.5221 21.2642 20.2391 20.6927C18.9561 20.1212 17.5675 19.825 16.163 19.823ZM10.5 16.5C11.603 16.5 12.5 15.603 12.5 14.5C12.5 13.397 11.603 12.5 10.5 12.5C9.397 12.5 8.5 13.397 8.5 14.5C8.5 15.603 9.397 16.5 10.5 16.5ZM10.5 13.5C10.6981 13.4998 10.8917 13.5584 11.0565 13.6683C11.2213 13.7782 11.3497 13.9345 11.4256 14.1175C11.5015 14.3004 11.5214 14.5018 11.4828 14.696C11.4442 14.8903 11.3489 15.0688 11.2088 15.2088C11.0688 15.3489 10.8903 15.4442 10.696 15.4828C10.5018 15.5214 10.3004 15.5015 10.1175 15.4256C9.93452 15.3497 9.7782 15.2213 9.66828 15.0565C9.55837 14.8917 9.4998 14.6981 9.5 14.5C9.5 13.948 9.949 13.5 10.5 13.5ZM21.5 16.5C22.603 16.5 23.5 15.603 23.5 14.5C23.5 13.397 22.603 12.5 21.5 12.5C20.397 12.5 19.5 13.397 19.5 14.5C19.5 15.603 20.397 16.5 21.5 16.5ZM21.5 13.5C21.6981 13.4998 21.8917 13.5584 22.0565 13.6683C22.2213 13.7782 22.3497 13.9345 22.4256 14.1175C22.5015 14.3004 22.5214 14.5018 22.4828 14.696C22.4442 14.8903 22.3489 15.0688 22.2088 15.2088C22.0688 15.3489 21.8903 15.4442 21.696 15.4828C21.5018 15.5214 21.3004 15.5015 21.1175 15.4256C20.9345 15.3497 20.7782 15.2213 20.6683 15.0565C20.5584 14.8917 20.4998 14.6981 20.5 14.5C20.5 13.948 20.949 13.5 21.5 13.5Z" fill="black"/>
</svg>
    </symbol>
  </defs>
</svg>
